<svg width="45" height="89" viewBox="0 0 45 89" fill="none" xmlns="http://www.w3.org/2000/svg">
<path fill-rule="evenodd" clip-rule="evenodd" d="M0.890015 0.210083C12.5595 0.210083 23.7511 4.84569 32.0027 13.0973C40.2543 21.3489 44.89 32.5406 44.89 44.2101C44.89 55.8796 40.2543 67.0712 32.0027 75.3228C23.7511 83.5744 12.5595 88.2101 0.890015 88.2101V74.77C4.95303 74.8435 8.98992 74.1067 12.765 72.6027C16.5401 71.0986 19.9777 68.8575 22.877 66.0101C25.7763 63.1628 28.0792 59.7662 29.6513 56.0189C31.2234 52.2716 32.0331 48.2487 32.0331 44.1851C32.0331 40.1214 31.2234 36.0985 29.6513 32.3512C28.0792 28.6039 25.7763 25.2073 22.877 22.36C19.9777 19.5126 16.5401 17.2715 12.765 15.7675C8.98992 14.2634 4.95303 13.5266 0.890015 13.6001V0.210083Z" fill="#00926F"/>
</svg>
