<svg width="30" height="31" viewBox="0 0 30 31" fill="none" xmlns="http://www.w3.org/2000/svg">
<path fill-rule="evenodd" clip-rule="evenodd" d="M24 24.7C24 24.7 10 28.85 7.63 20.42C5.26 11.99 0.0199943 7.28997 10.41 3.89997C18.96 1.11997 22.76 4.01996 24.24 6.63996C25.72 9.25996 29.16 22.94 24 24.7Z" fill="#FBA870"/>
<path fill-rule="evenodd" clip-rule="evenodd" d="M26.57 15.46C26.57 15.46 32.05 25.7 27.76 28.46C23.47 31.22 10.76 33.03 7.42001 19.63C7.42001 19.63 14.9 21.89 17.98 21.02C21.06 20.15 22.63 17.84 25.86 18.53C25.86 18.48 26.89 18.15 26.57 15.46Z" fill="#FAFAFA"/>
<path fill-rule="evenodd" clip-rule="evenodd" d="M5.27 8.00001C5.32013 7.67277 5.43426 7.35863 5.60585 7.07552C5.77743 6.79241 6.00311 6.54587 6.27 6.35001C13.38 0.890012 20.15 3.24001 20.15 3.24001C13.62 -2.09999 2.15 2.24001 1.15001 8.75001C-0.489995 19.42 7.43 19.58 7.43 19.58C7.43 19.58 14.05 14.58 8.79002 11.79C7.4625 11.1803 6.35047 10.1833 5.60002 8.93001C5.44138 8.63948 5.32997 8.32555 5.27 8.00001Z" fill="#FAFAFA"/>
<path fill-rule="evenodd" clip-rule="evenodd" d="M25.34 20.47C25.1592 20.9634 24.8636 21.4066 24.4776 21.7631C24.0915 22.1196 23.6262 22.379 23.12 22.52C22.6279 22.6116 22.1209 22.5831 21.6421 22.4369C21.1633 22.2906 20.7269 22.031 20.37 21.68C21.941 20.9829 23.6243 20.573 25.34 20.47Z" fill="#FAFAFA"/>
</svg>
