<svg width="25" height="30" viewBox="0 0 25 30" fill="none" xmlns="http://www.w3.org/2000/svg">
<path fill-rule="evenodd" clip-rule="evenodd" d="M23.82 5.98996C23.9413 5.36074 23.9301 4.71314 23.7871 4.0885C23.6441 3.46386 23.3724 2.87589 22.9895 2.36212C22.6065 1.84835 22.1206 1.42008 21.5628 1.10461C21.0051 0.78915 20.3877 0.593428 19.75 0.529953C17.53 0.139953 14.28 1.13995 13.97 3.88995C13.66 6.63995 15.52 10.09 18.27 10.4C18.9242 10.4765 19.5872 10.423 20.2207 10.2426C20.8542 10.0621 21.4459 9.75828 21.9616 9.34848C22.4773 8.93868 22.907 8.43102 23.2259 7.85466C23.5449 7.2783 23.7467 6.64459 23.82 5.98996Z" fill="#FAFAFA"/>
<path fill-rule="evenodd" clip-rule="evenodd" d="M17.3 25.4C17.3 25.4 30.51 15.9799 22.24 6.63995C21.4352 5.71881 20.3998 5.02851 19.24 4.63995C16.1 3.56995 9.05 1.75995 4.97001 5.34995C0.570005 9.21995 -1.35 12.35 1.46 16.62C4.27 20.89 17.3 25.4 17.3 25.4Z" fill="#FAFAFA"/>
<path fill-rule="evenodd" clip-rule="evenodd" d="M4.17 29.4001C4.17 29.4001 15.85 31.1201 16.8 23.8301C17.75 16.5401 19.91 11.8301 12.5 10.4501C5.08999 9.07006 3.26 11.6301 2.35 13.9901C1.44 16.3501 1.16 28.7701 4.17 29.4001Z" fill="#FBA870"/>
<path fill-rule="evenodd" clip-rule="evenodd" d="M5.09 8.53995C5.09 8.53995 4.23002 22.54 18.67 22.87C18.67 22.87 20.49 4.21995 5.09 8.53995Z" fill="#FAFAFA"/>
<path fill-rule="evenodd" clip-rule="evenodd" d="M8.10999 10.07C8.10999 10.07 3.58001 12.17 1.79001 16.16C1.79001 16.16 -2.18001 9.04001 8.10999 10.07Z" fill="#FAFAFA"/>
<path fill-rule="evenodd" clip-rule="evenodd" d="M3.28 24.3C3.28 24.3 3.49 25.53 4.03 25.71C4.73926 25.9982 5.51356 26.0881 6.26999 25.97C6.50251 25.9164 6.72171 25.816 6.91425 25.6751C7.10678 25.5341 7.26867 25.3555 7.39001 25.15C6.10073 24.5631 4.6963 24.2727 3.28 24.3Z" fill="white"/>
</svg>
