<svg width="114" height="161" viewBox="0 0 114 161" fill="none" xmlns="http://www.w3.org/2000/svg">
<path fill-rule="evenodd" clip-rule="evenodd" d="M1.28497 106.16H10.5V116.385H7.67401V108.673H4.10498V116.385H1.28198L1.28497 106.16Z" fill="#476F55"/>
<path fill-rule="evenodd" clip-rule="evenodd" d="M19.035 112.338L17.9 109.445L16.748 112.338H19.035ZM16.559 106.088H19.281L23.624 116.388H20.592L19.865 114.548H15.919L15.191 116.388H12.234L16.559 106.088Z" fill="#476F55"/>
<path fill-rule="evenodd" clip-rule="evenodd" d="M25.339 106.16H28.323L30.758 110.119L33.188 106.16H36.174V116.385H33.363V110.514L30.758 114.514H30.7L28.106 110.525V116.382H25.34L25.339 106.16Z" fill="#476F55"/>
<path fill-rule="evenodd" clip-rule="evenodd" d="M42.712 108.597C41.765 108.597 41.182 109.022 41.182 109.84V109.854C41.182 110.629 41.749 111.066 42.698 111.066H44.562V108.597H42.712ZM47.387 116.383H44.562V113.289H43.337L41.269 116.383H37.992L40.452 112.82C39.8227 112.595 39.2802 112.178 38.9013 111.627C38.5224 111.077 38.3264 110.421 38.341 109.753V109.736C38.341 107.37 40.119 106.159 42.784 106.159H47.384L47.387 116.383Z" fill="#476F55"/>
<path fill-rule="evenodd" clip-rule="evenodd" d="M52.409 108.642H49.364V106.159H58.293V108.642H55.234V116.386H52.409V108.642Z" fill="#476F55"/>
<path fill-rule="evenodd" clip-rule="evenodd" d="M64.422 114.033C65.413 114.033 66.055 113.58 66.055 112.749V112.719C66.055 111.901 65.472 111.463 64.436 111.463H63.084V114.033H64.422ZM60.257 106.16H63.084V109.214H64.584C67.16 109.214 68.865 110.395 68.865 112.719V112.749C68.865 115.043 67.203 116.384 64.494 116.384H60.256L60.257 106.16Z" fill="#476F55"/>
<path fill-rule="evenodd" clip-rule="evenodd" d="M1.28497 123.197H10.5V133.423H7.67401V125.708H4.10498V133.423H1.28198L1.28497 123.197Z" fill="#476F55"/>
<path fill-rule="evenodd" clip-rule="evenodd" d="M20.782 128.339V128.309C20.7991 127.955 20.7446 127.601 20.6216 127.269C20.4987 126.936 20.3099 126.632 20.0666 126.374C19.8233 126.116 19.5304 125.91 19.2055 125.768C18.8806 125.626 18.5305 125.551 18.176 125.548C17.8241 125.549 17.4761 125.622 17.153 125.761C16.8299 125.901 16.5384 126.105 16.2961 126.36C16.0538 126.615 15.8657 126.916 15.7432 127.246C15.6206 127.576 15.5661 127.928 15.583 128.279V128.309C15.5683 128.664 15.6249 129.018 15.7496 129.351C15.8743 129.683 16.0646 129.987 16.309 130.245C16.5535 130.502 16.8471 130.708 17.1727 130.85C17.4982 130.992 17.8489 131.067 18.204 131.071C18.555 131.069 18.9018 130.995 19.2236 130.855C19.5454 130.715 19.8355 130.511 20.0764 130.256C20.3172 130 20.504 129.699 20.6252 129.37C20.7465 129.04 20.7998 128.69 20.782 128.339V128.339ZM12.702 128.339V128.309C12.7488 126.887 13.3456 125.538 14.3668 124.547C15.3881 123.556 16.754 123 18.177 122.997C19.6 122.993 20.969 123.541 21.9956 124.527C23.0223 125.512 23.6265 126.857 23.681 128.279V128.309C23.6343 129.731 23.0374 131.08 22.0162 132.071C20.9949 133.062 19.629 133.618 18.206 133.622C16.783 133.625 15.414 133.077 14.3874 132.092C13.3607 131.106 12.7566 129.761 12.702 128.339V128.339Z" fill="#476F55"/>
<path fill-rule="evenodd" clip-rule="evenodd" d="M25.864 123.197H28.688L28.675 127.054H29.182L32.272 123.197H35.651L31.413 128.149L35.855 133.423H32.355L29.178 129.507H28.671L28.684 133.423H25.86L25.864 123.197Z" fill="#476F55"/>
<path fill-rule="evenodd" clip-rule="evenodd" d="M44.271 128.339V128.309C44.2881 127.955 44.2335 127.601 44.1105 127.268C43.9875 126.936 43.7987 126.632 43.5552 126.374C43.3118 126.116 43.0188 125.91 42.6938 125.768C42.3689 125.626 42.0186 125.551 41.664 125.548C41.3121 125.549 40.9641 125.622 40.6411 125.761C40.318 125.901 40.0265 126.105 39.7842 126.36C39.5419 126.615 39.3537 126.916 39.2311 127.246C39.1086 127.576 39.0541 127.928 39.071 128.279V128.309C39.0564 128.664 39.1132 129.018 39.2379 129.35C39.3627 129.683 39.5529 129.987 39.7973 130.244C40.0417 130.502 40.3354 130.708 40.6608 130.85C40.9863 130.992 41.337 131.067 41.692 131.071C42.0431 131.069 42.39 130.995 42.7119 130.855C43.0338 130.715 43.324 130.511 43.565 130.256C43.806 130.001 43.9928 129.699 44.1141 129.37C44.2355 129.04 44.2888 128.69 44.271 128.339V128.339ZM36.187 128.339V128.309C36.2338 126.887 36.8307 125.538 37.8522 124.547C38.8736 123.556 40.2398 123 41.663 122.996C43.0863 122.992 44.4555 123.54 45.4823 124.526C46.5091 125.511 47.1135 126.857 47.168 128.279V128.309C47.1213 129.732 46.5243 131.08 45.5029 132.072C44.4814 133.063 43.1152 133.619 41.692 133.623C40.2687 133.626 38.8995 133.078 37.8727 132.092C36.8458 131.107 36.2415 129.761 36.187 128.339V128.339Z" fill="#476F55"/>
<path fill-rule="evenodd" clip-rule="evenodd" d="M59.007 133.423H55.876L53.413 127.039L50.952 133.423H47.895L52.147 123.123H54.737L59.007 133.423Z" fill="#476F55"/>
<path fill-rule="evenodd" clip-rule="evenodd" d="M60.725 123.197H68.925V125.597H63.525V127.161H68.417V129.397H63.525V131.018H69V133.429H60.729L60.725 123.197Z" fill="#476F55"/>
<path fill-rule="evenodd" clip-rule="evenodd" d="M71.18 123.197H74.005V127.025H77.63V123.197H80.456V133.423H77.63V129.537H74.005V133.423H71.18V123.197Z" fill="#476F55"/>
<path fill-rule="evenodd" clip-rule="evenodd" d="M89.789 133.423V127.597L85.45 133.425H82.988V123.197H85.812V128.807L90.012 123.197H92.619V133.423H89.789Z" fill="#476F55"/>
<path fill-rule="evenodd" clip-rule="evenodd" d="M97.1 120.32H98.774C98.8731 120.547 99.0447 120.735 99.2618 120.854C99.4789 120.973 99.7294 121.016 99.974 120.978C100.219 121.015 100.47 120.971 100.688 120.852C100.906 120.733 101.079 120.547 101.181 120.32H102.844C102.653 121.781 101.59 122.525 99.974 122.525C98.358 122.525 97.295 121.781 97.105 120.32H97.1ZM101.95 133.42V127.597L97.611 133.425H95.149V123.197H97.973V128.806L102.173 123.197H104.781V133.423L101.95 133.42Z" fill="#476F55"/>
<path fill-rule="evenodd" clip-rule="evenodd" d="M3.59998 146.839C4.63098 146.839 5.39099 146.401 5.39099 145.565V145.543C5.39099 144.674 4.65998 144.304 3.63898 144.304H1.539V146.839H3.59998ZM0.780029 140.715H5.58002V141.415H1.53998V143.615H3.67999C5.14999 143.615 6.159 144.24 6.159 145.507V145.525C6.159 146.882 5.002 147.535 3.573 147.535H0.781982L0.780029 140.715Z" fill="#476F55"/>
<path fill-rule="evenodd" clip-rule="evenodd" d="M13.011 147.342H12.175L10.375 143.188L8.56799 147.342H7.76099L10.037 142.261H10.727L13.011 147.342Z" fill="#476F55"/>
<path fill-rule="evenodd" clip-rule="evenodd" d="M17.777 145.489V145.001C17.2966 144.86 16.7986 144.788 16.298 144.787C15.355 144.787 14.832 145.195 14.832 145.83V145.85C14.832 146.483 15.415 146.855 16.096 146.855C16.2963 146.877 16.499 146.859 16.6924 146.802C16.8857 146.746 17.0658 146.651 17.2222 146.524C17.3786 146.397 17.5082 146.24 17.6035 146.062C17.6987 145.884 17.7577 145.69 17.777 145.489V145.489ZM14.077 145.88V145.859C14.077 144.797 14.952 144.23 16.225 144.23C16.7479 144.225 17.2686 144.298 17.77 144.446V144.271C17.77 143.364 17.216 142.895 16.275 142.895C15.7446 142.901 15.2224 143.028 14.748 143.265L14.523 142.651C15.0925 142.374 15.7177 142.231 16.351 142.232C16.6453 142.212 16.9407 142.25 17.2198 142.346C17.4989 142.441 17.756 142.592 17.976 142.788C18.1562 142.987 18.2946 143.219 18.3831 143.472C18.4715 143.725 18.5083 143.994 18.491 144.261V147.342H17.77V146.582C17.5581 146.861 17.2825 147.086 16.9663 147.237C16.6501 147.388 16.3024 147.462 15.952 147.451C15.7247 147.476 15.4947 147.454 15.2759 147.388C15.057 147.322 14.8538 147.212 14.6784 147.065C14.503 146.919 14.359 146.738 14.2549 146.534C14.1509 146.331 14.089 146.108 14.073 145.88H14.077Z" fill="#476F55"/>
<path fill-rule="evenodd" clip-rule="evenodd" d="M20.356 142.297H24.013V142.979H21.1V147.339H20.354L20.356 142.297Z" fill="#476F55"/>
<path fill-rule="evenodd" clip-rule="evenodd" d="M29.225 144.845V144.827C29.2345 144.575 29.1934 144.323 29.1043 144.086C29.0151 143.849 28.8796 143.633 28.7058 143.449C28.5319 143.266 28.3231 143.119 28.0917 143.017C27.8603 142.915 27.6108 142.86 27.358 142.856C27.1079 142.859 26.861 142.912 26.632 143.013C26.403 143.113 26.1966 143.259 26.0253 143.441C25.8539 143.623 25.7211 143.838 25.6348 144.073C25.5485 144.308 25.5105 144.557 25.523 144.807V144.827C25.5134 145.078 25.554 145.329 25.6426 145.564C25.7312 145.8 25.8658 146.015 26.0387 146.198C26.2116 146.38 26.4192 146.526 26.6494 146.627C26.8795 146.729 27.1276 146.783 27.379 146.787C27.6293 146.786 27.8767 146.734 28.1065 146.635C28.3362 146.536 28.5435 146.391 28.7159 146.209C28.8883 146.028 29.0223 145.814 29.1098 145.579C29.1973 145.345 29.2365 145.095 29.225 144.845ZM24.753 144.845V144.827C24.745 144.479 24.8065 144.132 24.934 143.808C25.0614 143.484 25.2523 143.188 25.4953 142.938C25.7384 142.689 26.0288 142.49 26.3495 142.354C26.6702 142.218 27.0149 142.147 27.3633 142.146C27.7117 142.145 28.0569 142.213 28.3787 142.346C28.7005 142.48 28.9924 142.677 29.2373 142.924C29.4823 143.172 29.6753 143.466 29.8053 143.79C29.9352 144.113 29.9994 144.459 29.994 144.807V144.827C29.9966 145.174 29.93 145.518 29.7984 145.838C29.6668 146.159 29.4727 146.45 29.2274 146.695C28.982 146.94 28.6904 147.134 28.3695 147.265C28.0485 147.396 27.7047 147.462 27.358 147.459C27.0142 147.463 26.6732 147.397 26.3549 147.267C26.0367 147.137 25.7477 146.944 25.505 146.701C25.2623 146.457 25.0708 146.168 24.9416 145.849C24.8125 145.53 24.7483 145.189 24.753 144.845V144.845Z" fill="#476F55"/>
<path fill-rule="evenodd" clip-rule="evenodd" d="M32.77 142.974H30.756V142.297H35.541V142.972H33.518V147.339H32.771L32.77 142.974Z" fill="#476F55"/>
<path fill-rule="evenodd" clip-rule="evenodd" d="M37.663 146.739H39.442C40.193 146.739 40.609 146.425 40.609 145.948C40.609 145.411 40.182 145.091 39.365 145.091H37.665V146.739H37.663ZM39.306 144.506C40.026 144.506 40.406 144.172 40.406 143.668C40.406 143.197 40.046 142.906 39.376 142.906H37.664V144.506H39.306ZM36.923 142.297H39.462C40.503 142.297 41.162 142.785 41.162 143.597C41.1659 143.864 41.079 144.125 40.9155 144.336C40.7519 144.547 40.5215 144.696 40.262 144.759C40.921 144.934 41.362 145.295 41.362 145.977C41.362 146.865 40.623 147.342 39.462 147.342H36.923V142.297Z" fill="#476F55"/>
<path fill-rule="evenodd" clip-rule="evenodd" d="M47.164 144.845V144.827C47.1727 144.575 47.131 144.323 47.0415 144.086C46.952 143.85 46.8164 143.634 46.6425 143.451C46.4687 143.267 46.2602 143.12 46.029 143.018C45.7978 142.916 45.5487 142.861 45.296 142.856C45.046 142.859 44.7991 142.912 44.5701 143.013C44.3412 143.114 44.1349 143.259 43.9636 143.441C43.7923 143.624 43.6594 143.838 43.5731 144.073C43.4867 144.308 43.4486 144.557 43.461 144.807V144.827C43.4513 145.078 43.4918 145.329 43.5803 145.564C43.6689 145.8 43.8035 146.015 43.9765 146.198C44.1494 146.38 44.357 146.527 44.5872 146.628C44.8175 146.729 45.0656 146.783 45.317 146.787C45.5674 146.786 45.815 146.735 46.0449 146.636C46.2749 146.536 46.4823 146.392 46.6549 146.21C46.8274 146.029 46.9615 145.814 47.049 145.58C47.1365 145.345 47.1756 145.095 47.164 144.845V144.845ZM42.693 144.845V144.827C42.685 144.479 42.7465 144.133 42.8739 143.809C43.0013 143.484 43.1921 143.189 43.4351 142.939C43.678 142.69 43.9683 142.491 44.2889 142.355C44.6095 142.219 44.954 142.148 45.3023 142.147C45.6506 142.146 45.9957 142.214 46.3173 142.347C46.639 142.481 46.9308 142.677 47.1756 142.925C47.4205 143.173 47.6135 143.467 47.7434 143.79C47.8732 144.113 47.9374 144.459 47.932 144.807V144.827C47.9346 145.174 47.8681 145.518 47.7365 145.838C47.6048 146.159 47.4107 146.45 47.1654 146.695C46.92 146.94 46.6284 147.134 46.3075 147.265C45.9865 147.396 45.6427 147.462 45.296 147.459C44.9523 147.463 44.6113 147.397 44.2932 147.267C43.9751 147.137 43.6862 146.944 43.4437 146.701C43.2011 146.457 43.0098 146.167 42.8809 145.849C42.752 145.53 42.6881 145.189 42.693 144.845V144.845Z" fill="#476F55"/>
<path fill-rule="evenodd" clip-rule="evenodd" d="M53.866 144.836V144.818C53.8851 144.572 53.8538 144.325 53.774 144.092C53.6943 143.858 53.5677 143.644 53.402 143.461C53.2364 143.279 53.0353 143.132 52.8109 143.03C52.5864 142.927 52.3435 142.872 52.097 142.867C51.8501 142.875 51.6072 142.931 51.3821 143.033C51.157 143.134 50.9542 143.279 50.7853 143.46C50.6164 143.64 50.4848 143.852 50.3979 144.083C50.311 144.314 50.2706 144.56 50.279 144.807V144.827C50.2688 145.075 50.308 145.322 50.3941 145.555C50.4802 145.787 50.6116 146 50.7808 146.181C50.9499 146.363 51.1533 146.509 51.3793 146.611C51.6052 146.713 51.8492 146.769 52.097 146.776C52.3441 146.776 52.5886 146.725 52.8148 146.625C53.0409 146.526 53.2438 146.38 53.4103 146.197C53.5768 146.014 53.7034 145.799 53.7819 145.565C53.8603 145.33 53.889 145.082 53.866 144.836V144.836ZM49.56 142.297H50.308V143.31C50.5049 142.973 50.7858 142.693 51.1234 142.496C51.4609 142.3 51.8435 142.194 52.234 142.189C52.5656 142.196 52.8924 142.27 53.1946 142.406C53.4969 142.543 53.7683 142.74 53.9926 142.984C54.2169 143.228 54.3893 143.516 54.4996 143.828C54.6098 144.141 54.6555 144.473 54.634 144.804V144.824C54.6555 145.155 54.6099 145.488 54.4997 145.801C54.3895 146.114 54.2171 146.402 53.9929 146.646C53.7687 146.891 53.4973 147.088 53.1951 147.226C52.8928 147.363 52.5659 147.437 52.234 147.445C51.8483 147.445 51.469 147.347 51.1319 147.16C50.7948 146.972 50.5112 146.702 50.308 146.374V148.901H49.56V142.297Z" fill="#476F55"/>
<path fill-rule="evenodd" clip-rule="evenodd" d="M56.294 142.297H57.04V146.209L60.093 142.297H60.815V147.339H60.074V143.419L56.993 147.339H56.293L56.294 142.297Z" fill="#476F55"/>
<path fill-rule="evenodd" clip-rule="evenodd" d="M64.229 142.974H62.215V142.297H67V142.972H64.977V147.339H64.23L64.229 142.974Z" fill="#476F55"/>
<path fill-rule="evenodd" clip-rule="evenodd" d="M71.758 144.543C71.7656 144.325 71.7302 144.108 71.654 143.904C71.5777 143.7 71.462 143.513 71.3134 143.354C71.1648 143.194 70.9863 143.066 70.7881 142.976C70.5898 142.885 70.3757 142.835 70.158 142.827C69.7186 142.853 69.3054 143.044 69.0017 143.363C68.698 143.681 68.5265 144.103 68.5219 144.543H71.758ZM67.758 144.836V144.817C67.7391 144.485 67.787 144.153 67.8989 143.84C68.0107 143.527 68.1843 143.24 68.4092 142.995C68.6341 142.75 68.9058 142.553 69.2082 142.415C69.5107 142.277 69.8377 142.201 70.17 142.192C70.5037 142.198 70.8326 142.274 71.1355 142.414C71.4385 142.554 71.7089 142.756 71.9294 143.006C72.1499 143.257 72.3156 143.551 72.4161 143.869C72.5166 144.187 72.5496 144.523 72.513 144.855C72.5147 144.937 72.5117 145.018 72.504 145.099H68.515C68.5288 145.558 68.7215 145.994 69.052 146.313C69.3825 146.632 69.8246 146.809 70.284 146.807C70.5844 146.81 70.8819 146.747 71.156 146.624C71.4301 146.501 71.6743 146.321 71.872 146.094L72.3369 146.512C72.0868 146.818 71.77 147.062 71.4108 147.226C71.0516 147.39 70.6597 147.47 70.265 147.459C69.9258 147.46 69.59 147.392 69.278 147.259C68.9661 147.125 68.6844 146.93 68.4503 146.685C68.2161 146.44 68.0344 146.149 67.916 145.831C67.7977 145.513 67.7453 145.175 67.762 144.836H67.758Z" fill="#476F55"/>
<path fill-rule="evenodd" clip-rule="evenodd" d="M78.7 147.342H77.862L76.062 143.188L74.252 147.342H73.443L75.721 142.261H76.411L78.7 147.342Z" fill="#476F55"/>
<path fill-rule="evenodd" clip-rule="evenodd" d="M82.4 146.697C83.244 146.697 83.653 146.315 83.653 145.682C83.653 145.067 83.244 144.669 82.41 144.669H80.9V146.697H82.4ZM80.153 142.297H80.902V144.034H82.437C83.663 144.034 84.413 144.669 84.413 145.672V145.692C84.413 146.678 83.682 147.339 82.413 147.339H80.156L80.153 142.297Z" fill="#476F55"/>
<path fill-rule="evenodd" clip-rule="evenodd" d="M85.914 142.297H86.66V144.452H89.666V142.297H90.404V147.339H89.666V145.139H86.66V147.339H85.914V142.297Z" fill="#476F55"/>
<path fill-rule="evenodd" clip-rule="evenodd" d="M97.544 142.297H98.294V147.339H97.544V142.297ZM93.111 146.697H94.611C95.455 146.697 95.865 146.315 95.865 145.682C95.865 145.067 95.455 144.669 94.621 144.669H93.113V146.697H93.111ZM93.111 144.034H94.646C95.873 144.034 96.622 144.669 96.622 145.672V145.692C96.622 146.678 95.892 147.339 94.622 147.339H92.366V142.297H93.114L93.111 144.034Z" fill="#476F55"/>
<path fill-rule="evenodd" clip-rule="evenodd" d="M101.059 140.34H101.603C101.673 140.521 101.795 140.676 101.955 140.786C102.114 140.895 102.303 140.954 102.497 140.954C102.691 140.954 102.88 140.895 103.039 140.786C103.199 140.676 103.321 140.521 103.391 140.34H103.938C103.882 140.681 103.706 140.991 103.442 141.215C103.179 141.439 102.844 141.561 102.498 141.561C102.153 141.561 101.818 141.439 101.555 141.215C101.291 140.991 101.115 140.681 101.059 140.34V140.34ZM100.244 142.3H100.991V146.212L104.045 142.3H104.765V147.342H104.025V143.422L100.944 147.342H100.244V142.3Z" fill="#476F55"/>
<path fill-rule="evenodd" clip-rule="evenodd" d="M4.20502 154.84V158.617C5.80502 158.586 6.59601 157.817 6.59601 156.733C6.59601 155.649 5.79602 154.872 4.20502 154.84ZM3.48499 158.617V154.84C1.88499 154.872 1.104 155.64 1.104 156.725C1.104 157.81 1.89199 158.586 3.48499 158.617ZM3.47498 160.81V159.278C1.42398 159.239 0.335022 158.156 0.335022 156.733C0.335022 155.31 1.43498 154.233 3.47498 154.178V152.13H4.21503V154.178C6.25803 154.229 7.35602 155.3 7.35602 156.714C7.35602 158.128 6.24803 159.239 4.21503 159.278V160.81H3.47498Z" fill="#476F55"/>
<path fill-rule="evenodd" clip-rule="evenodd" d="M13.67 156.554V156.536C13.6795 156.284 13.6385 156.032 13.5494 155.795C13.4603 155.559 13.3249 155.342 13.1511 155.159C12.9773 154.975 12.7687 154.828 12.5374 154.726C12.3061 154.624 12.0568 154.57 11.804 154.565C11.5538 154.568 11.3066 154.62 11.0773 154.721C10.848 154.821 10.6413 154.967 10.4697 155.149C10.298 155.331 10.1649 155.546 10.0784 155.781C9.99185 156.015 9.95363 156.265 9.96603 156.515V156.536C9.95668 156.787 9.99759 157.038 10.0863 157.273C10.1751 157.508 10.3099 157.723 10.4828 157.906C10.6558 158.088 10.8635 158.234 11.0936 158.335C11.3237 158.436 11.5717 158.49 11.823 158.494C12.0733 158.493 12.3208 158.442 12.5506 158.343C12.7805 158.244 12.9879 158.099 13.1605 157.918C13.333 157.737 13.4671 157.523 13.5547 157.288C13.6423 157.054 13.6815 156.804 13.67 156.554ZM9.19803 156.554V156.536C9.18997 156.188 9.25147 155.841 9.37887 155.517C9.50628 155.193 9.69703 154.897 9.94003 154.647C10.183 154.398 10.4734 154.199 10.7941 154.063C11.1148 153.927 11.4594 153.856 11.8078 153.855C12.1562 153.853 12.5014 153.921 12.8232 154.055C13.145 154.188 13.4369 154.385 13.6819 154.633C13.9269 154.88 14.12 155.174 14.25 155.498C14.38 155.821 14.4443 156.167 14.4391 156.515V156.536C14.4415 156.883 14.3749 157.226 14.2433 157.547C14.1116 157.867 13.9175 158.158 13.6723 158.403C13.427 158.648 13.1356 158.841 12.8148 158.972C12.4941 159.103 12.1505 159.169 11.804 159.166C11.4604 159.17 11.1196 159.105 10.8015 158.974C10.4835 158.844 10.1947 158.652 9.95212 158.408C9.70951 158.165 9.51797 157.876 9.38882 157.557C9.25967 157.239 9.19549 156.898 9.20004 156.554H9.19803Z" fill="#476F55"/>
<path fill-rule="evenodd" clip-rule="evenodd" d="M16.068 154.007H16.813V156.164H19.819V154.007H20.557V159.053H19.819V156.847H16.813V159.053H16.068V154.007Z" fill="#476F55"/>
<path fill-rule="evenodd" clip-rule="evenodd" d="M23.276 158.387H26.415L24.86 154.722L23.276 158.387V158.387ZM27.214 158.368H27.789V160.386H27.106V159.05H22.613V160.386H21.933V158.368H22.508L24.471 153.968H25.25L27.214 158.368Z" fill="#476F55"/>
<path fill-rule="evenodd" clip-rule="evenodd" d="M104.791 159.275H33.442L33.459 153.3H104.79L104.791 159.275Z" fill="#476F55"/>
<path fill-rule="evenodd" clip-rule="evenodd" d="M113.026 65.989C111.273 64.762 107.892 62.4041 105.853 61.0371C105.759 60.9755 105.683 60.8907 105.633 60.7908C105.582 60.6909 105.558 60.5795 105.563 60.4675C105.569 60.3556 105.603 60.2469 105.663 60.1523C105.723 60.0578 105.807 59.9806 105.906 59.9282C107.555 59.04 109.248 58.2355 110.978 57.5181C111.067 57.4822 111.148 57.4271 111.213 57.3567C111.278 57.2863 111.328 57.2022 111.357 57.1106C111.386 57.019 111.395 56.922 111.382 56.8267C111.37 56.7313 111.336 56.64 111.284 56.5591C108.21 51.7071 110.666 52.151 111.459 48.717C111.489 48.5805 111.473 48.4381 111.414 48.3115C111.355 48.185 111.255 48.0814 111.131 48.0171C109.892 47.3781 106.415 45.7081 104.795 44.9321C104.7 44.8863 104.618 44.818 104.556 44.7332C104.493 44.6483 104.452 44.5495 104.437 44.4453C104.421 44.3412 104.431 44.2349 104.466 44.1355C104.501 44.0361 104.56 43.9466 104.637 43.875L108.192 40.5432C108.276 40.4641 108.338 40.3636 108.371 40.2527C108.403 40.1417 108.405 40.0243 108.377 39.9121C108.349 39.7999 108.292 39.6972 108.21 39.6147C108.129 39.5323 108.028 39.4731 107.916 39.4431L100.089 37.3572C99.9723 37.3263 99.8665 37.2634 99.7836 37.1755C99.7007 37.0877 99.644 36.9784 99.6198 36.8601C99.5957 36.7418 99.6052 36.6191 99.6471 36.5059C99.689 36.3926 99.7617 36.2934 99.857 36.2192L105.451 31.8701C105.549 31.7939 105.622 31.6916 105.664 31.575C105.705 31.4583 105.712 31.3322 105.684 31.2117C105.656 31.0911 105.595 30.981 105.506 30.8943C105.418 30.8076 105.307 30.7479 105.186 30.7222L100.802 29.8081C100.663 29.779 100.537 29.7051 100.444 29.5977C100.351 29.4902 100.296 29.355 100.287 29.2131L99.774 21.2021C99.7681 21.1085 99.7419 21.0173 99.6973 20.9348C99.6527 20.8523 99.5906 20.7803 99.5155 20.7241C99.4404 20.6679 99.3539 20.6289 99.2622 20.6094C99.1704 20.5899 99.0755 20.5903 98.984 20.6111L93.91 21.7791C93.8209 21.8008 93.7282 21.8031 93.6382 21.7859C93.5481 21.7686 93.4628 21.7323 93.388 21.6792L86.888 16.9861C86.8166 16.9345 86.7355 16.8979 86.6495 16.8787C86.5636 16.8594 86.4746 16.8578 86.388 16.874L79.298 18.229C79.2075 18.2463 79.1144 18.2442 79.0249 18.2224C78.9354 18.2007 78.8516 18.1599 78.7791 18.103C78.7066 18.0462 78.6472 17.9746 78.6047 17.8928C78.5623 17.8111 78.5378 17.7211 78.5331 17.6292L77.594 2.59717C77.5835 2.43041 77.5092 2.27404 77.3864 2.16064C77.2637 2.04724 77.1021 1.98539 76.935 1.98804L64.429 3.80811C64.0825 3.8597 63.7556 4.00157 63.481 4.21924L58.036 8.56714C57.9717 8.64052 57.8915 8.69828 57.8016 8.73608C57.7117 8.77389 57.6143 8.7908 57.5169 8.7854C57.4195 8.78 57.3246 8.75234 57.2393 8.70483C57.1541 8.65732 57.0809 8.59126 57.0251 8.51123L52.752 3.91113C52.4995 3.63762 52.1741 3.44197 51.8141 3.34717L41.881 0.697998H41.6811C41.5226 0.726562 41.3806 0.813346 41.2827 0.941162C41.1849 1.06898 41.1382 1.22878 41.152 1.38916L41.9911 11.823C41.9998 11.9254 41.984 12.0287 41.945 12.1238C41.9059 12.2189 41.8448 12.3032 41.7665 12.3699C41.6883 12.4366 41.5952 12.4838 41.4951 12.5073C41.3951 12.5308 41.2908 12.53 41.191 12.5051L31.6551 10.1831C31.5456 10.1569 31.4312 10.1596 31.3231 10.1909C31.215 10.2222 31.1169 10.2811 31.0384 10.3618C30.96 10.4425 30.9038 10.5422 30.8755 10.6511C30.8472 10.7601 30.8478 10.8745 30.877 10.9832L32.219 16.0562C32.2434 16.147 32.2477 16.242 32.2317 16.3347C32.2156 16.4274 32.1795 16.5155 32.1259 16.5928C32.0723 16.6701 32.0025 16.7347 31.9214 16.7822C31.8402 16.8298 31.7497 16.8592 31.656 16.8682L23.48 17.6482C23.3875 17.6572 23.2981 17.686 23.2177 17.7327C23.1374 17.7794 23.068 17.8428 23.0144 17.9187C22.9608 17.9946 22.9242 18.0813 22.9071 18.1726C22.8899 18.2639 22.8926 18.3578 22.915 18.448C23.361 20.209 24.715 25.2292 25.081 25.8872C25.0101 25.7457 24.9833 25.5861 25.0039 25.4292C25.0246 25.2723 25.0919 25.1253 25.1971 25.0071L29.014 21.2622C29.1286 21.1488 29.278 21.0772 29.4382 21.0591C29.5984 21.0409 29.76 21.0772 29.897 21.1621L34.85 24.2942C34.979 24.3713 35.1296 24.4043 35.279 24.3882C35.4228 24.3841 35.5622 24.3371 35.679 24.2532C35.7583 24.1894 35.8236 24.11 35.871 24.02L38.332 19.3552C38.3536 19.3243 38.3777 19.295 38.404 19.2681C38.4732 19.1718 38.5653 19.0945 38.672 19.043C38.7787 18.9914 38.8967 18.9674 39.015 18.9731C39.1087 18.9805 39.2001 19.0059 39.284 19.0481L48.544 23.6301C48.6365 23.6764 48.7379 23.7019 48.8413 23.7051C48.9446 23.7082 49.0475 23.689 49.1426 23.6484C49.2377 23.6079 49.3229 23.5472 49.3922 23.4705C49.4616 23.3937 49.5133 23.3028 49.544 23.2041L50.865 19.0381C50.9064 18.906 50.9851 18.7888 51.0916 18.7004C51.1982 18.6121 51.328 18.5565 51.4654 18.5403C51.6029 18.5241 51.7421 18.5482 51.8662 18.6094C51.9904 18.6706 52.0941 18.7662 52.165 18.885L55.946 25.1851C56.0147 25.3002 56.1143 25.3938 56.2336 25.4551C56.3528 25.5164 56.4869 25.5429 56.6205 25.5317C56.754 25.5206 56.8818 25.472 56.9892 25.3918C57.0966 25.3117 57.1794 25.203 57.2281 25.0781L59.692 18.8162C59.7308 18.7143 59.7927 18.6228 59.873 18.5491C59.989 18.4406 60.1379 18.374 60.2961 18.3599C60.4543 18.3457 60.6126 18.385 60.746 18.4712L65.816 21.7112C65.9239 21.7795 66.0483 21.8169 66.1759 21.8196C66.3035 21.8222 66.4294 21.7898 66.54 21.7261C66.6453 21.674 66.7353 21.5954 66.8011 21.498L66.845 21.4302L69.845 16.8462C69.9024 16.7555 69.9798 16.6791 70.0714 16.623C70.1629 16.567 70.2661 16.533 70.373 16.5232C70.4744 16.5143 70.5766 16.5266 70.673 16.5593C70.7694 16.592 70.858 16.6444 70.933 16.7131C71.0415 16.8123 71.1161 16.9432 71.146 17.0872L72.7361 24.3291C72.7551 24.4202 72.7921 24.5064 72.845 24.583L72.854 24.593C72.9062 24.6653 72.9708 24.7277 73.045 24.7771L80.867 29.8831C81.0028 29.9719 81.1046 30.104 81.1562 30.2578C81.2077 30.4117 81.2059 30.5785 81.151 30.7312C81.1273 30.7776 81.0984 30.8211 81.065 30.8611C81.0405 30.9139 81.0093 30.9633 80.972 31.0081L75.209 36.5251C75.1051 36.6241 75.0332 36.7517 75.0023 36.8918C74.9714 37.0319 74.9829 37.1781 75.0356 37.3115C75.0882 37.445 75.1795 37.5598 75.2976 37.6411C75.4158 37.7224 75.5555 37.7666 75.699 37.7681L80.441 37.812C80.4684 37.8123 80.4958 37.814 80.523 37.8171L91.9311 39.25C92.0411 39.2639 92.1463 39.3034 92.2384 39.365C92.3306 39.4266 92.4071 39.5089 92.462 39.6052L96.834 47.2131C96.8908 47.3128 96.9227 47.4245 96.9271 47.5391C96.9314 47.6536 96.908 47.7677 96.859 47.8713C96.8099 47.975 96.7366 48.0653 96.6452 48.1345C96.5538 48.2038 96.4471 48.2498 96.334 48.269C96.315 48.269 96.301 48.2871 96.279 48.2881L95.826 48.3291L89.7621 48.8782C89.6485 48.8889 89.5393 48.9272 89.444 48.9897C89.3487 49.0523 89.2701 49.1372 89.2151 49.2371C89.1512 49.3497 89.1167 49.4767 89.115 49.6062C89.1136 49.7431 89.1533 49.8772 89.229 49.9912L92.785 55.3911C92.8465 55.4917 92.8829 55.6057 92.8909 55.7234C92.8989 55.841 92.8784 55.9589 92.8311 56.0669C92.7838 56.1749 92.711 56.2699 92.619 56.3438C92.5271 56.4176 92.4187 56.4683 92.303 56.4912L84.958 57.718C84.8864 57.7404 84.8189 57.7743 84.758 57.8181C84.6651 57.8407 84.5814 57.8912 84.5179 57.9626C84.4545 58.0341 84.4144 58.1231 84.403 58.218C84.396 58.239 84.376 58.2541 84.372 58.2761C84.3397 58.416 84.3506 58.5625 84.4032 58.696C84.4559 58.8296 84.5479 58.944 84.667 59.0242L88.067 61.3521C88.1419 61.4055 88.2053 61.4737 88.2532 61.5522C88.3011 61.6308 88.3327 61.718 88.346 61.8091C88.3869 61.9827 88.3623 62.1653 88.277 62.322C88.212 62.4311 88.1178 62.5199 88.005 62.5781L83.592 64.978C83.4949 65.0306 83.4112 65.1048 83.3473 65.1948C83.2834 65.2848 83.2411 65.3883 83.2235 65.4973C83.2059 65.6063 83.2135 65.7179 83.2459 65.8235C83.2782 65.929 83.3344 66.0258 83.41 66.1062C83.5154 66.2204 83.6564 66.2954 83.81 66.3191L89.38 67.301C89.855 67.351 90.28 67.4072 90.601 67.4702C90.6501 67.4873 90.6967 67.5104 90.74 67.5391L90.972 67.582C91.0845 67.6016 91.1907 67.6475 91.282 67.7161L98.808 73.4492C98.9245 73.5383 99.011 73.6607 99.0558 73.8003C99.1007 73.9399 99.1018 74.09 99.0591 74.2302L92.683 80.176C92.6331 80.3472 92.5205 80.4934 92.3675 80.585C92.2145 80.6766 92.0325 80.707 91.858 80.6702L96.5721 82.0012C96.68 82.0317 96.794 82.0337 96.903 82.0071C97.012 81.9804 97.1123 81.926 97.194 81.8491L108.169 75.7612C108.291 75.6453 108.363 75.4867 108.37 75.3188C108.377 75.151 108.318 74.9868 108.207 74.8611L104.289 70.446C104.216 70.3633 104.165 70.2634 104.141 70.1555C104.117 70.0476 104.121 69.9355 104.152 69.8296C104.184 69.7237 104.242 69.6274 104.32 69.55C104.399 69.4727 104.497 69.4166 104.603 69.3872L112.823 67.1511C112.96 67.1139 113.081 67.0324 113.168 66.9194C113.254 66.8064 113.3 66.6683 113.3 66.5261C113.303 66.4209 113.279 66.3167 113.231 66.2229C113.183 66.1291 113.113 66.0487 113.026 65.989V65.989Z" fill="#DF2726"/>
<path fill-rule="evenodd" clip-rule="evenodd" d="M92.686 80.173L99.062 74.227C99.1048 74.0867 99.1037 73.9369 99.0588 73.7973C99.014 73.6577 98.9275 73.535 98.811 73.446L91.285 67.7131C91.1937 67.6445 91.0875 67.5986 90.975 67.579L90.743 67.5361L89.383 67.298L83.813 66.3161C83.6594 66.2924 83.5184 66.2172 83.413 66.103C83.3374 66.0225 83.2813 65.926 83.2489 65.8205C83.2166 65.7149 83.2089 65.6033 83.2264 65.4943C83.244 65.3853 83.2864 65.2818 83.3503 65.1918C83.4142 65.1018 83.4979 65.0276 83.595 64.975L88.008 62.5751C88.1204 62.5163 88.2145 62.4276 88.28 62.319C88.3654 62.1623 88.3899 61.9797 88.349 61.8061C88.3357 61.715 88.3041 61.6275 88.2562 61.549C88.2082 61.4705 88.1449 61.4025 88.07 61.349L84.67 59.0212C84.5509 58.941 84.4589 58.8264 84.4062 58.6928C84.3535 58.5592 84.3427 58.413 84.375 58.2731C84.375 58.2501 84.399 58.236 84.406 58.215C84.4174 58.1201 84.4574 58.0309 84.5209 57.9594C84.5843 57.8879 84.6681 57.8377 84.761 57.8151C84.8219 57.7713 84.8894 57.7374 84.961 57.715L92.306 56.488C92.4225 56.4652 92.5316 56.4146 92.6242 56.3403C92.7167 56.266 92.7898 56.1702 92.8372 56.0615C92.8846 55.9527 92.9049 55.8341 92.8964 55.7157C92.8878 55.5974 92.8506 55.4828 92.788 55.382L89.232 49.9821C89.1563 49.8681 89.1166 49.734 89.118 49.5971C89.1197 49.4676 89.1541 49.3406 89.218 49.228C89.2731 49.1281 89.3516 49.0432 89.447 48.9806C89.5423 48.9181 89.6515 48.8798 89.765 48.8691L95.829 48.32L96.282 48.279C96.304 48.279 96.318 48.2609 96.338 48.2599C96.4511 48.2407 96.5578 48.1947 96.6492 48.1254C96.7406 48.0562 96.8139 47.9659 96.863 47.8622C96.9121 47.7586 96.9354 47.6448 96.931 47.5302C96.9267 47.4156 96.8948 47.3036 96.838 47.204L92.466 39.5961C92.4111 39.4998 92.3346 39.4175 92.2424 39.3559C92.1503 39.2943 92.045 39.255 91.935 39.2411L80.527 37.808C80.4998 37.8043 80.4725 37.8019 80.445 37.801L75.703 37.759C75.5596 37.7575 75.4198 37.7133 75.3016 37.632C75.1834 37.5507 75.0922 37.4359 75.0396 37.3024C74.9869 37.1689 74.9753 37.0228 75.0062 36.8827C75.0371 36.7426 75.1091 36.615 75.213 36.516L80.976 30.999C81.0133 30.9542 81.0445 30.9048 81.069 30.852C81.1024 30.812 81.1313 30.7685 81.155 30.7221C81.2099 30.5694 81.2116 30.4026 81.1601 30.2487C81.1086 30.0949 81.0067 29.9628 80.871 29.874L73.049 24.768C72.9748 24.7186 72.9101 24.6564 72.858 24.5842L72.849 24.5741C72.7974 24.4969 72.7604 24.4106 72.74 24.32L71.15 17.0781C71.1201 16.9341 71.0455 16.8032 70.937 16.704C70.862 16.6352 70.7734 16.5827 70.677 16.55C70.5806 16.5173 70.4784 16.5051 70.377 16.5141C70.2701 16.5238 70.1669 16.5579 70.0754 16.6139C69.9838 16.6699 69.9064 16.7464 69.849 16.8371L66.849 21.4211L66.805 21.4889C66.7392 21.5863 66.6493 21.6649 66.544 21.717C66.4332 21.7799 66.3074 21.8117 66.1799 21.809C66.0525 21.8064 65.9282 21.7695 65.82 21.7021L60.75 18.4621C60.6166 18.3759 60.4582 18.3366 60.3001 18.3508C60.1419 18.3649 59.993 18.4315 59.877 18.54C59.7974 18.6131 59.7355 18.7035 59.696 18.8041L57.232 25.069C57.1833 25.1939 57.1006 25.3028 56.9932 25.383C56.8858 25.4632 56.758 25.5115 56.6244 25.5226C56.4908 25.5338 56.3568 25.5073 56.2376 25.446C56.1183 25.3847 56.0187 25.2911 55.95 25.176L52.168 18.8761C52.0971 18.7573 51.9933 18.6615 51.8692 18.6003C51.7451 18.5391 51.6059 18.515 51.4685 18.5312C51.331 18.5474 51.2012 18.603 51.0946 18.6913C50.9881 18.7797 50.9094 18.8969 50.868 19.029L49.547 23.195C49.5162 23.2936 49.4643 23.3845 49.395 23.4611C49.3256 23.5377 49.2404 23.5983 49.1453 23.6388C49.0502 23.6794 48.9476 23.6988 48.8442 23.6957C48.7409 23.6926 48.6395 23.6671 48.547 23.621L39.287 19.039C39.2034 18.9959 39.1118 18.9705 39.018 18.964C38.8996 18.9583 38.7817 18.9823 38.675 19.0339C38.5683 19.0854 38.4761 19.1627 38.407 19.259C38.3806 19.2859 38.3566 19.3152 38.335 19.3461L35.874 24.0112C35.8198 24.121 35.7361 24.2135 35.6323 24.2785C35.5284 24.3435 35.4085 24.3784 35.286 24.3791C35.1366 24.3952 34.986 24.3622 34.857 24.2851L29.904 21.153C29.7668 21.0681 29.6051 21.0318 29.4447 21.05C29.2844 21.0681 29.1348 21.1397 29.02 21.2531L25.204 24.998C25.0989 25.1162 25.0316 25.2635 25.0109 25.4203C24.9903 25.5772 25.0171 25.7366 25.088 25.8781C27.084 29.0852 28.9147 32.3921 30.573 35.7861C30.828 36.3171 31.421 38.1051 31.462 38.2241C31.454 38.1921 31.449 38.163 31.442 38.124C31.422 38.0444 31.4205 37.9614 31.4379 37.8813C31.4552 37.8011 31.4909 37.7261 31.542 37.662C31.5892 37.6007 31.6498 37.5509 31.7191 37.5163C31.7883 37.4816 31.8646 37.4631 31.942 37.4621L34.383 37.4282C34.513 37.4253 34.6396 37.4701 34.7388 37.5541C34.8381 37.6381 34.9032 37.7553 34.922 37.884L36.298 47.2341C36.3109 47.3206 36.3449 47.4027 36.3969 47.4731C36.449 47.5434 36.5175 47.6 36.5966 47.6376C36.6756 47.6753 36.7627 47.6928 36.8501 47.6889C36.9375 47.685 37.0227 47.6597 37.098 47.6152L43.798 43.5951C43.8846 43.5441 43.9839 43.5183 44.0844 43.5212C44.1849 43.524 44.2826 43.5551 44.3662 43.611C44.4497 43.6669 44.5158 43.7453 44.5568 43.8371C44.5978 43.9289 44.6122 44.0305 44.598 44.1301L43.578 51.2101C43.567 51.2858 43.5724 51.3628 43.5936 51.4362C43.6149 51.5096 43.6516 51.5776 43.7014 51.6357C43.7511 51.6937 43.8126 51.7406 43.8819 51.7729C43.9512 51.8052 44.0266 51.8222 44.103 51.8229L51.738 51.8849C51.8786 51.886 52.0132 51.9423 52.1127 52.0417C52.2122 52.141 52.2687 52.2753 52.27 52.4159L52.33 60.0751C52.3306 60.1515 52.3474 60.227 52.3795 60.2963C52.4115 60.3657 52.4581 60.4273 52.5159 60.4772C52.5738 60.5271 52.6417 60.5641 52.715 60.5856C52.7883 60.6072 52.8653 60.6127 52.941 60.602L59.999 59.5771C60.0992 59.5629 60.2014 59.5774 60.2937 59.6188C60.386 59.6603 60.4647 59.7271 60.5207 59.8115C60.5767 59.8958 60.6076 59.9942 60.6099 60.0954C60.6123 60.1966 60.586 60.2962 60.534 60.383L56.525 67.101C56.4799 67.1767 56.4541 67.2623 56.4498 67.3503C56.4456 67.4383 56.4631 67.526 56.5007 67.6056C56.5384 67.6853 56.595 67.7542 56.6657 67.8068C56.7364 67.8594 56.8189 67.894 56.906 67.9072L66.228 69.289C66.3562 69.3089 66.4728 69.3746 66.5565 69.4736C66.6403 69.5726 66.6856 69.6984 66.684 69.8281L66.646 72.277C66.6436 72.3565 66.6234 72.4344 66.5869 72.5051C66.5504 72.5757 66.4986 72.6373 66.4352 72.6852C66.3718 72.7332 66.2984 72.7663 66.2205 72.7822C66.1426 72.798 66.0621 72.7963 65.985 72.777C65.985 72.777 87.212 79.446 91.82 80.652C91.831 80.652 91.842 80.652 91.852 80.652C92.0258 80.6921 92.2083 80.6649 92.363 80.5761C92.5177 80.4873 92.633 80.3433 92.686 80.173V80.173Z" fill="#9D1B2E"/>
<path fill-rule="evenodd" clip-rule="evenodd" d="M15.42 93.3973L29.062 79.7142C32.662 81.3072 37.48 80.2882 44.297 76.5992C51.711 72.5872 57.772 70.8342 65.997 72.7882C66.0741 72.8075 66.1546 72.8094 66.2325 72.7935C66.3104 72.7777 66.3838 72.7443 66.4472 72.6964C66.5106 72.6484 66.5625 72.5868 66.5989 72.5162C66.6354 72.4456 66.6556 72.3676 66.658 72.2882L66.696 69.8392C66.698 69.7094 66.6529 69.5833 66.569 69.4842C66.4852 69.3851 66.3683 69.3197 66.24 69.3001L56.918 67.9183C56.8309 67.9051 56.7484 67.8708 56.6777 67.8182C56.6071 67.7656 56.5504 67.6964 56.5128 67.6168C56.4751 67.5371 56.4576 67.4494 56.4619 67.3614C56.4661 67.2734 56.4919 67.1878 56.537 67.1121L60.546 60.3941C60.598 60.3073 60.6243 60.2077 60.6219 60.1065C60.6196 60.0054 60.5886 59.9069 60.5327 59.8226C60.4767 59.7383 60.398 59.6714 60.3057 59.63C60.2133 59.5885 60.1112 59.574 60.011 59.5882L52.953 60.6131C52.8773 60.6238 52.8002 60.6183 52.7269 60.5968C52.6536 60.5752 52.5858 60.5383 52.5279 60.4884C52.47 60.4385 52.4235 60.3768 52.3915 60.3075C52.3594 60.2381 52.3425 60.1627 52.342 60.0863L52.281 52.4271C52.28 52.2866 52.2237 52.1522 52.1243 52.0528C52.025 51.9535 51.8905 51.8974 51.75 51.8963L44.115 51.8343C44.0386 51.8335 43.9632 51.8163 43.8939 51.784C43.8246 51.7517 43.763 51.7049 43.7133 51.6468C43.6636 51.5888 43.6269 51.5208 43.6056 51.4474C43.5843 51.3739 43.579 51.2969 43.59 51.2213L44.612 44.1412C44.6262 44.041 44.6117 43.9388 44.5703 43.8465C44.5288 43.7542 44.462 43.6754 44.3777 43.6195C44.2934 43.5635 44.195 43.5327 44.0938 43.5304C43.9926 43.528 43.8929 43.5543 43.806 43.6063L37.106 47.6263C37.0304 47.6717 36.9448 47.6976 36.8567 47.702C36.7686 47.7063 36.6809 47.6889 36.6011 47.6512C36.5214 47.6135 36.4522 47.5567 36.3997 47.4859C36.3472 47.4151 36.3129 47.3324 36.3 47.2452L34.922 37.8951C34.9033 37.7668 34.8384 37.6497 34.7396 37.5658C34.6407 37.4818 34.5147 37.437 34.385 37.4393L31.944 37.4732C31.8666 37.4744 31.7904 37.4928 31.7211 37.5274C31.6519 37.5621 31.5914 37.6119 31.544 37.6732C31.4929 37.7373 31.4572 37.8123 31.4399 37.8924C31.4225 37.9726 31.4239 38.0556 31.444 38.1351C31.451 38.1701 31.456 38.1992 31.464 38.2352C33.377 46.4352 31.626 52.4972 27.643 59.9002C23.819 67.0092 22.864 71.9532 24.734 75.6102L1.034 99.3763H104.791V93.3973H15.42Z" fill="#476F55"/>
</svg>
