<svg width="148" height="88" viewBox="0 0 148 88" fill="none" xmlns="http://www.w3.org/2000/svg">
<path fill-rule="evenodd" clip-rule="evenodd" d="M30.77 11.59C35.3 3.12997 47.97 -3.27003 61.44 2.37997C72.15 -0.700032 83.38 -0.390032 91 5.29997L72.75 5.01997L72.59 15.6H73.81C74.4573 15.6085 75.0965 15.7455 75.6904 16.003C76.2844 16.2605 76.8213 16.6334 77.27 17.1C78.1803 18.0443 78.6831 19.3084 78.67 20.62C78.6489 21.9258 78.1106 23.1699 77.1732 24.0792C76.2358 24.9885 74.9759 25.4887 73.67 25.47H72.47L72.31 36.04L82.87 36.2V34.99C82.9039 33.6865 83.4456 32.4479 84.3796 31.5382C85.3137 30.6284 86.5661 30.1195 87.87 30.12C89.1699 30.159 90.4035 30.7029 91.309 31.6364C92.2144 32.5699 92.7206 33.8195 92.72 35.12V36.3L102.07 36.44H103.27L103.63 12.85C119.9 15.08 128.63 36.72 113.51 50.93C113.331 53.4416 112.641 55.8902 111.482 58.1256C110.323 60.3611 108.719 62.3362 106.77 63.93L102.77 42.93L94.77 44.46C94.6453 43.8034 94.3924 43.1778 94.0259 42.6189C93.6593 42.06 93.1863 41.5788 92.6338 41.2027C92.0813 40.8266 91.4601 40.563 90.8057 40.427C90.1514 40.291 89.4766 40.2852 88.82 40.41C88.1634 40.5347 87.5378 40.7876 86.9789 41.1541C86.42 41.5207 85.9388 41.9937 85.5627 42.5462C85.1866 43.0987 84.9231 43.7199 84.7871 44.3742C84.651 45.0286 84.6453 45.7034 84.77 46.36L76.07 48.01L77.47 55.26C80.41 55.37 83.11 57.08 83.67 60.07C84.23 63.06 83.27 66.29 79.85 67.68L80.73 72.45C78.16 72.59 75.53 72.61 72.87 72.5L72.55 70.7C73.983 70.1612 75.1828 69.139 75.9423 67.8099C76.7018 66.4807 76.9734 64.928 76.71 63.42C76.4445 61.9148 75.6618 60.5496 74.4969 59.56C73.3321 58.5704 71.8583 58.0187 70.33 58L68.76 49.06L59.63 50.67C59.1714 49.429 58.3444 48.3578 57.26 47.6C55.8663 46.6259 54.1501 46.2282 52.47 46.49H52.36C50.8521 46.7516 49.4835 47.5329 48.4916 48.6983C47.4997 49.8637 46.9472 51.3397 46.93 52.87L39.39 54.19L38.2 54.4L41.84 75.17C37.6962 74.7053 33.8013 72.9572 30.7 70.17C24.4275 75.1635 18.9426 81.0731 14.43 87.7C12.0814 87.1442 9.64237 87.0863 7.27 87.53C9.15021 81.224 11.5139 75.0725 14.34 69.13C4.72 68.44 3.03001 57.13 6.44001 52.58C-8.55999 35.02 8.69001 7.99997 30.79 11.58L30.77 11.59ZM93.71 7.70997L75.09 7.41997L75 13.3C76.7056 13.6144 78.2445 14.5235 79.3431 15.8656C80.4417 17.2077 81.0288 18.8958 81 20.63C80.9746 22.3728 80.3314 24.0501 79.185 25.3631C78.0387 26.6761 76.4635 27.5396 74.74 27.8L74.65 33.65L80.5 33.74C80.8145 32.0343 81.7235 30.4955 83.0656 29.3969C84.4077 28.2983 86.0959 27.7112 87.83 27.74C89.5711 27.7678 91.246 28.412 92.5569 29.5582C93.8679 30.7043 94.73 32.2782 94.99 34L100.84 34.09L101.16 12.76C99.8506 12.7396 98.5421 12.8367 97.25 13.05C96.3201 11.1202 95.1067 9.34052 93.65 7.76997L93.71 7.70997ZM64.43 41.3L62.33 33.3L63.33 32.91C64.2847 32.5463 65.0718 31.8433 65.5405 30.9355C66.0091 30.0277 66.1265 28.9789 65.87 27.99C65.6121 26.999 64.9961 26.1388 64.1409 25.5755C63.2858 25.0122 62.2523 24.7858 61.24 24.94L60.17 25.1L57.79 15.97L32.43 22.6L39.05 47.95L44.58 46.51C44.7131 45.1561 45.2378 43.8704 46.09 42.81C47.216 41.4013 48.7545 40.3803 50.49 39.89C52.2989 39.4589 54.1961 39.5879 55.93 40.26C57.2145 40.739 58.3258 41.5925 59.12 42.71L64.43 41.3ZM65.19 34.67C66.2629 34.0372 67.1361 33.1154 67.71 32.01C68.2146 31.0193 68.4594 29.9167 68.4217 28.8056C68.384 27.6945 68.065 26.6111 67.4945 25.6568C66.9239 24.7026 66.1206 23.9088 65.1596 23.3497C64.1986 22.7905 63.1115 22.4844 62 22.46L59.53 13.01L29.53 20.85L37.37 50.85L47 48.3V47.3C46.9576 46.2117 47.3131 45.1452 48 44.3C48.7946 43.2995 49.8819 42.5723 51.11 42.22C52.4248 41.9126 53.8018 42.0102 55.06 42.5C56.1006 42.8808 56.9583 43.6419 57.46 44.63L57.89 45.52L67.36 43.05L65.18 34.7L65.19 34.67ZM70.37 72.3L69.76 68.78L70.95 68.58C72.0001 68.3554 72.9222 67.7326 73.5227 66.8424C74.1232 65.9522 74.3552 64.8639 74.1701 63.8062C73.985 62.7485 73.3971 61.8037 72.5299 61.1704C71.6628 60.537 70.5839 60.2645 69.52 60.41L68.33 60.62L66.78 51.8L57.53 53.42V52.1C57.3215 51.0375 56.7031 50.0998 55.8085 49.4897C54.914 48.8797 53.8153 48.6462 52.75 48.84C51.6745 49.0373 50.7204 49.6512 50.095 50.5481C49.4696 51.4451 49.2234 52.5526 49.41 53.63V53.74V54.86L48.41 55.03L41 56.3L44.35 75.39C48 76.08 57.5 75.3 61.65 71.3C64.56 71.76 67.48 72.11 70.37 72.3Z" fill="#6D097A"/>
<path fill-rule="evenodd" clip-rule="evenodd" d="M117.37 77.92L143.09 81.92L147.09 56.2L139.36 54.98C139.545 53.7117 139.223 52.4214 138.463 51.3891C137.703 50.3568 136.567 49.6656 135.301 49.4656C134.035 49.2655 132.741 49.5727 131.7 50.3205C130.659 51.0683 129.955 52.1963 129.74 53.46L121.37 52.15L120.17 60.3C121.318 60.728 122.285 61.5356 122.91 62.5887C123.536 63.6419 123.783 64.8773 123.61 66.09C123.21 68.24 121.61 69.7 118.67 69.95L117.37 77.92Z" fill="#00926F"/>
</svg>
