<svg width="103" height="195" viewBox="0 0 103 195" fill="none" xmlns="http://www.w3.org/2000/svg">
<g filter="url(#filter0_d)">
<path fill-rule="evenodd" clip-rule="evenodd" d="M4.28998 0.0999711C16.619 -0.0276946 28.851 2.29041 40.2784 6.92016C51.7058 11.5499 62.1019 18.3994 70.8653 27.0726C79.6287 35.7457 86.5855 46.0703 91.3333 57.4492C96.0811 68.828 98.5258 81.0353 98.5258 93.365C98.5258 105.695 96.0811 117.902 91.3333 129.281C86.5855 140.66 79.6287 150.984 70.8653 159.657C62.1019 168.331 51.7058 175.18 40.2784 179.81C28.851 184.44 16.619 186.758 4.28998 186.63V166.63C23.7224 166.63 42.3589 158.91 56.0997 145.17C69.8405 131.429 77.56 112.792 77.56 93.36C77.56 73.9276 69.8405 55.2911 56.0997 41.5503C42.3589 27.8095 23.7224 20.09 4.28998 20.09V0.0999711Z" fill="#E8AAF0"/>
</g>
<g filter="url(#filter1_d)">
<path d="M44.2 87.6599H29.4V121.15H44.2V87.6599Z" fill="#6D097A"/>
</g>
<g filter="url(#filter2_d)">
<path fill-rule="evenodd" clip-rule="evenodd" d="M36.8 80.37C38.2636 80.37 39.6943 79.936 40.9112 79.1228C42.1281 78.3097 43.0766 77.154 43.6367 75.8018C44.1968 74.4496 44.3433 72.9617 44.0578 71.5263C43.7723 70.0908 43.0675 68.7723 42.0326 67.7374C40.9977 66.7025 39.6791 65.9977 38.2437 65.7121C36.8082 65.4266 35.3203 65.5732 33.9681 66.1333C32.616 66.6934 31.4602 67.6418 30.6471 68.8587C29.834 70.0757 29.4 71.5064 29.4 72.9699C29.4053 74.9309 30.1866 76.8101 31.5732 78.1967C32.9599 79.5834 34.839 80.3647 36.8 80.37Z" fill="#6D097A"/>
</g>
<defs>
<filter id="filter0_d" x="0.289978" y="0.0949707" width="102.236" height="194.54" filterUnits="userSpaceOnUse" color-interpolation-filters="sRGB">
<feFlood flood-opacity="0" result="BackgroundImageFix"/>
<feColorMatrix in="SourceAlpha" type="matrix" values="0 0 0 0 0 0 0 0 0 0 0 0 0 0 0 0 0 0 127 0" result="hardAlpha"/>
<feOffset dy="4"/>
<feGaussianBlur stdDeviation="2"/>
<feComposite in2="hardAlpha" operator="out"/>
<feColorMatrix type="matrix" values="0 0 0 0 0 0 0 0 0 0 0 0 0 0 0 0 0 0 0.25 0"/>
<feBlend mode="normal" in2="BackgroundImageFix" result="effect1_dropShadow"/>
<feBlend mode="normal" in="SourceGraphic" in2="effect1_dropShadow" result="shape"/>
</filter>
<filter id="filter1_d" x="25.4" y="87.6599" width="22.8" height="41.49" filterUnits="userSpaceOnUse" color-interpolation-filters="sRGB">
<feFlood flood-opacity="0" result="BackgroundImageFix"/>
<feColorMatrix in="SourceAlpha" type="matrix" values="0 0 0 0 0 0 0 0 0 0 0 0 0 0 0 0 0 0 127 0" result="hardAlpha"/>
<feOffset dy="4"/>
<feGaussianBlur stdDeviation="2"/>
<feComposite in2="hardAlpha" operator="out"/>
<feColorMatrix type="matrix" values="0 0 0 0 0 0 0 0 0 0 0 0 0 0 0 0 0 0 0.25 0"/>
<feBlend mode="normal" in2="BackgroundImageFix" result="effect1_dropShadow"/>
<feBlend mode="normal" in="SourceGraphic" in2="effect1_dropShadow" result="shape"/>
</filter>
<filter id="filter2_d" x="25.4" y="65.5699" width="22.8" height="22.8" filterUnits="userSpaceOnUse" color-interpolation-filters="sRGB">
<feFlood flood-opacity="0" result="BackgroundImageFix"/>
<feColorMatrix in="SourceAlpha" type="matrix" values="0 0 0 0 0 0 0 0 0 0 0 0 0 0 0 0 0 0 127 0" result="hardAlpha"/>
<feOffset dy="4"/>
<feGaussianBlur stdDeviation="2"/>
<feComposite in2="hardAlpha" operator="out"/>
<feColorMatrix type="matrix" values="0 0 0 0 0 0 0 0 0 0 0 0 0 0 0 0 0 0 0.25 0"/>
<feBlend mode="normal" in2="BackgroundImageFix" result="effect1_dropShadow"/>
<feBlend mode="normal" in="SourceGraphic" in2="effect1_dropShadow" result="shape"/>
</filter>
</defs>
</svg>
