<svg width="289" height="326" viewBox="0 0 289 326" fill="none" xmlns="http://www.w3.org/2000/svg">
<path d="M202.215 162.253C242.083 152.844 266.774 112.896 257.364 73.0289C247.955 33.1614 208.008 8.47029 168.14 17.8799C128.273 27.2895 103.582 67.2365 112.991 107.104C122.401 146.972 162.348 171.663 202.215 162.253Z" fill="#CAE6DF"/>
<path d="M171.698 298.009C236.232 282.896 276.296 218.33 261.183 153.797C246.071 89.2628 181.504 49.199 116.971 64.3115C52.4369 79.424 12.373 143.99 27.4855 208.524C42.598 273.058 107.164 313.121 171.698 298.009Z" fill="#CAE6DF"/>
<path fill-rule="evenodd" clip-rule="evenodd" d="M107.16 107.3C113.535 107.31 119.769 105.428 125.074 101.892C130.378 98.357 134.514 93.327 136.959 87.4393C139.403 81.5517 140.045 75.0712 138.803 68.8184C137.562 62.5656 134.494 56.8218 129.986 52.3141C125.478 47.8064 119.734 44.7377 113.482 43.4965C107.229 42.2553 100.748 42.8973 94.8606 45.3414C88.973 47.7855 83.943 51.9217 80.4075 57.2263C76.872 62.5308 74.9901 68.7652 75 75.14C75.029 83.6604 78.4266 91.8236 84.4515 97.8485C90.4764 103.873 98.6396 107.271 107.16 107.3Z" fill="#CAE6DF"/>
<path fill-rule="evenodd" clip-rule="evenodd" d="M244.09 194.85H89.15L81.98 152.99H236.65L244.09 194.85Z" fill="#D9DADA"/>
<path fill-rule="evenodd" clip-rule="evenodd" d="M137.1 199.97H89.45C89.38 199.97 89.32 199.9 89.32 199.8V194.85H137.1V199.97Z" fill="#727271"/>
<path fill-rule="evenodd" clip-rule="evenodd" d="M265 199.97H115.78C115.101 199.97 114.45 199.7 113.97 199.22C113.49 198.74 113.22 198.089 113.22 197.41C113.22 196.731 113.49 196.08 113.97 195.6C114.45 195.12 115.101 194.85 115.78 194.85H265C265.679 194.85 266.33 195.12 266.81 195.6C267.29 196.08 267.56 196.731 267.56 197.41C267.56 198.089 267.29 198.74 266.81 199.22C266.33 199.7 265.679 199.97 265 199.97Z" fill="#727271"/>
<path fill-rule="evenodd" clip-rule="evenodd" d="M97.34 199.97L94.34 211.97L85.34 247.49C85.2892 247.716 85.1618 247.917 84.9795 248.059C84.7971 248.201 84.5712 248.276 84.34 248.27C84.1252 248.271 83.9129 248.224 83.7184 248.133C83.5238 248.042 83.3519 247.909 83.2151 247.744C83.0783 247.578 82.9799 247.384 82.9271 247.176C82.8744 246.968 82.8685 246.751 82.91 246.54L90.96 205.11L91.96 199.96L97.34 199.97Z" fill="#C5C6C6"/>
<path fill-rule="evenodd" clip-rule="evenodd" d="M94.29 211.96C94.58 205.83 90.87 205.12 90.87 205.12L91.87 199.97H97.33L94.29 211.96Z" fill="#727271"/>
<path fill-rule="evenodd" clip-rule="evenodd" d="M130.16 199.97L127.11 211.97L118.11 247.49C118.059 247.716 117.932 247.917 117.749 248.059C117.567 248.201 117.341 248.276 117.11 248.27C116.895 248.271 116.683 248.224 116.488 248.133C116.294 248.042 116.122 247.909 115.985 247.744C115.848 247.578 115.75 247.384 115.697 247.176C115.644 246.968 115.639 246.751 115.68 246.54L123.73 205.11L124.73 199.96L130.16 199.97Z" fill="#C5C6C6"/>
<path fill-rule="evenodd" clip-rule="evenodd" d="M127.11 211.96C127.4 205.83 123.69 205.12 123.69 205.12L124.69 199.97H130.15L127.11 211.96Z" fill="#727271"/>
<path fill-rule="evenodd" clip-rule="evenodd" d="M257.84 199.97L260.89 211.97L269.89 247.49C269.941 247.716 270.068 247.917 270.251 248.059C270.433 248.201 270.659 248.276 270.89 248.27C271.106 248.273 271.319 248.227 271.515 248.137C271.711 248.046 271.884 247.913 272.022 247.748C272.16 247.582 272.259 247.388 272.312 247.179C272.366 246.97 272.372 246.752 272.33 246.54L264.27 205.11L263.27 199.96L257.84 199.97Z" fill="#C5C6C6"/>
<path fill-rule="evenodd" clip-rule="evenodd" d="M260.89 211.96C260.6 205.83 264.3 205.12 264.3 205.12L263.3 199.97H257.84L260.89 211.96Z" fill="#727271"/>
<path fill-rule="evenodd" clip-rule="evenodd" d="M229.31 199.97L232.36 211.97L241.36 247.49C241.42 247.71 241.55 247.905 241.73 248.046C241.911 248.187 242.131 248.265 242.36 248.27C242.575 248.271 242.787 248.224 242.982 248.133C243.176 248.042 243.348 247.909 243.485 247.744C243.622 247.578 243.72 247.384 243.773 247.176C243.826 246.968 243.831 246.751 243.79 246.54L235.74 205.11L234.74 199.96L229.31 199.97Z" fill="#C5C6C6"/>
<path fill-rule="evenodd" clip-rule="evenodd" d="M153 248.3H139.33C138.6 247.68 139.84 246.3 141.13 246.18C141.831 246.168 142.531 246.252 143.21 246.43C143.4 243.93 144.47 232.73 148.51 233.18C153.05 233.68 148.51 238.11 147.22 240.74C146.313 242.697 145.509 244.699 144.81 246.74L145.95 246.97C146.55 245.12 148.79 238.9 151.64 239.27C154.98 239.69 153.64 242.18 151.27 243.66C149.53 244.75 147.4 246.3 146.38 247.04C147.261 247.195 148.155 247.268 149.05 247.26C150.449 247.113 151.854 247.483 153 248.3Z" fill="#00926F"/>
<path fill-rule="evenodd" clip-rule="evenodd" d="M163.51 104.05C163.51 104.05 163.51 105.85 163.51 108.28C163.51 109.48 163.51 110.82 163.61 112.18C163.61 113.18 163.49 114.06 163.61 115.01L166.28 129.3L177.63 114.89C177.63 114.89 175.63 112.77 173.7 102.32V102.15L163.51 104.05Z" fill="#FBA870"/>
<path fill-rule="evenodd" clip-rule="evenodd" d="M163.5 108.3C163.5 109.5 163.5 110.84 163.6 112.2C174.53 109.32 173.85 103.47 173.7 102.38V102.21C173.7 102.21 167.86 105.39 163.5 108.3Z" fill="#FC8B3F"/>
<path fill-rule="evenodd" clip-rule="evenodd" d="M132.69 98.02C132.69 98.02 129.44 104.54 130.9 110.09L126.7 124.97L114.15 109.97C117.261 105.36 119.31 100.118 120.15 94.62L132.69 98.02Z" fill="#FBA870"/>
<path fill-rule="evenodd" clip-rule="evenodd" d="M71.55 152.12V156.9C70.5952 156.9 69.6795 157.279 69.0044 157.954C68.3293 158.63 67.95 159.545 67.95 160.5C67.95 161.455 68.3293 162.37 69.0044 163.046C69.6795 163.721 70.5952 164.1 71.55 164.1V168.88H66.77C66.7214 167.957 66.3203 167.087 65.6496 166.451C64.9789 165.815 64.0895 165.46 63.165 165.46C62.2404 165.46 61.3511 165.815 60.6804 166.451C60.0097 167.087 59.6086 167.957 59.56 168.88H54.78V152.12H71.55Z" fill="#FEFEFE"/>
<path fill-rule="evenodd" clip-rule="evenodd" d="M173.38 236.37C173.38 236.37 172.51 248.02 174.71 248.2C175 248.2 185.88 248.31 185.88 248.31L199.88 248.42C199.744 247.348 199.248 246.353 198.475 245.598C197.701 244.842 196.695 244.371 195.62 244.26C191.56 243.52 184.79 240.61 182.38 235.26C179.87 229.57 173.38 236.37 173.38 236.37Z" fill="#727271"/>
<path fill-rule="evenodd" clip-rule="evenodd" d="M158.65 236.37C158.65 236.37 157.78 248.02 159.98 248.2C160.27 248.2 171.15 248.31 171.15 248.31L185.15 248.42C185.011 247.347 184.514 246.352 183.739 245.597C182.964 244.842 181.956 244.371 180.88 244.26C176.83 243.52 170.06 240.61 167.64 235.26C165.13 229.57 158.65 236.37 158.65 236.37Z" fill="#727271"/>
<path fill-rule="evenodd" clip-rule="evenodd" d="M139.36 112.86C142.626 114.915 145.669 117.305 148.44 119.99C153.2 124.44 160.38 134.38 163.55 136.39C166.72 138.4 183.7 139.84 183.7 139.84V143.59C183.7 143.59 168.44 148.59 158.37 146.59C148.3 144.59 139.66 136.95 139.66 136.95L139.36 112.86Z" fill="#00926F"/>
<path fill-rule="evenodd" clip-rule="evenodd" d="M205.73 232.07C205.79 231.53 205.86 230.84 205.93 230.07C205.51 225.85 203.45 209.97 203.66 203.58C209.05 205.77 214.39 201.76 215.92 201.47C215.09 207.81 212.83 224.9 212.16 228.47C212.07 230.81 212.05 234.6 212.81 236.47C213.91 239.325 215.573 241.93 217.7 244.13C217.95 244.36 210.48 244.63 207.15 243.19C203.82 241.75 201.15 240.26 202.15 238.19C202.487 237.468 202.921 236.795 203.44 236.19C204.585 235.066 205.38 233.635 205.73 232.07Z" fill="#FBA870"/>
<path fill-rule="evenodd" clip-rule="evenodd" d="M217.67 229.46C217.84 228.94 218.03 228.28 218.24 227.54C218.61 223.32 219.56 207.33 220.96 201.09C225.84 204.25 231.84 201.31 233.4 201.31C231.4 207.38 225.98 223.75 224.66 227.16C224.12 229.45 223.4 233.16 223.81 235.1C224.351 238.112 225.497 240.984 227.18 243.54C227.38 243.82 219.99 242.68 216.99 240.65C213.99 238.62 211.67 236.65 212.99 234.84C213.458 234.193 214.009 233.611 214.63 233.11C215.975 232.213 217.031 230.945 217.67 229.46Z" fill="#FC8B3F"/>
<path fill-rule="evenodd" clip-rule="evenodd" d="M184.66 169.63C184.66 169.63 189.26 163.63 192.43 164.5C195.6 165.37 216.92 169.45 227.83 181C237.61 191.36 237.33 210.65 237.33 210.65C237.33 210.65 222.65 214.65 213.15 212.95C203.65 211.25 202.31 213.33 197.9 214.01C194.75 214.48 192.28 197.7 190.12 196.26C186.74 194 160.48 194.53 159.9 183.02C159.32 171.51 184.66 169.63 184.66 169.63Z" fill="#6D097A"/>
<path fill-rule="evenodd" clip-rule="evenodd" d="M193.1 159.8C192.114 158.77 191.307 157.584 190.71 156.29C188.858 152.754 187.235 149.104 185.85 145.36C185.35 143.96 185.09 143.01 185.23 142.91C185.739 142.219 186.185 141.482 186.56 140.71C187.3 139.36 188.24 137.56 189.16 135.71C190.97 132.12 192.7 128.4 192.65 127.8C193.1 129.24 200.78 153.56 200.97 156.91C201.16 160.26 195.4 161.53 193.1 159.8Z" fill="#9A34A8"/>
<path fill-rule="evenodd" clip-rule="evenodd" d="M190.72 156.3C188.868 152.764 187.245 149.114 185.86 145.37C186.05 143.85 186.29 142.21 186.57 140.72C187.14 137.72 187.88 135.31 188.79 135.54C188.93 135.54 190.25 135.47 190.37 135.54C192.2 136.98 190.37 146.39 191.75 149.06C192.77 151.06 190.72 156.3 190.72 156.3Z" fill="#6D097A"/>
<path fill-rule="evenodd" clip-rule="evenodd" d="M216.94 241.3C220.23 242.84 218.94 243.11 223.18 245.82C227.42 248.53 229.78 248.03 230.37 247.54C230.96 247.05 229.11 245.38 227.23 243.48H227.18C224.639 243.213 222.219 242.259 220.18 240.72C217.48 238.65 215.29 235.64 213.43 234.19C212.877 234.751 212.396 235.379 212 236.06C211 238.12 213.66 239.8 216.94 241.3Z" fill="#00926F"/>
<path fill-rule="evenodd" clip-rule="evenodd" d="M207.23 243.88C210.75 244.78 209.53 245.28 214.23 247.15C218.93 249.02 221.12 248.09 221.61 247.5C222.1 246.91 219.97 245.61 217.77 244.1H217.72C215.178 244.302 212.629 243.815 210.34 242.69C207.34 241.16 204.59 238.61 202.5 237.54C202.056 238.191 201.7 238.897 201.44 239.64C200.77 241.82 203.73 242.98 207.23 243.88Z" fill="#00926F"/>
<path fill-rule="evenodd" clip-rule="evenodd" d="M192.93 168.05C193.68 169.43 189.84 172.94 187.93 173.95C185.45 175.24 185.32 175.7 170.42 176.66L165.87 176.93C156.25 177.46 151.08 177.45 151.08 177.45C151.08 177.45 158.4 166.61 155.43 139.94C155.205 135.758 156.225 131.603 158.36 128C160.43 125 160.54 121.33 161.05 117.77C161.19 116.77 160.42 116.62 160.69 115.64C160.69 115.64 163.28 114.58 163.56 114.55C165.23 115.71 167.56 118.09 172.56 118.04C173.643 118.114 174.718 117.807 175.599 117.171C176.479 116.535 177.109 115.612 177.38 114.56C178.724 115.011 180.043 115.536 181.33 116.13C184.026 116.985 186.469 118.492 188.444 120.517C190.419 122.542 191.863 125.023 192.65 127.74C192.65 127.74 189.19 152.22 188.9 155.67C188.69 157.98 191.13 164.74 192.93 168.05Z" fill="#9A34A8"/>
<path fill-rule="evenodd" clip-rule="evenodd" d="M169.4 170.3C173.24 182.58 150.46 177.63 150.46 177.63C150.46 177.63 151.46 173.25 150.77 164.71C150.48 161.24 146.62 156.47 147.43 151.98C148.28 147.29 158.62 143.98 161.43 138.44C158.94 152.51 173.33 161.53 169.4 170.3Z" fill="#6D097A"/>
<path fill-rule="evenodd" clip-rule="evenodd" d="M169.19 170.42C169.19 170.42 174.29 170.07 176.24 170.64C178.19 171.21 179.91 172.8 180.12 173.64C180.33 174.48 176.12 175.01 175.12 174.58C174.12 174.15 172.31 175.01 171.12 174.65C170.194 174.323 169.321 173.861 168.53 173.28L169.19 170.42Z" fill="#FBA870"/>
<path fill-rule="evenodd" clip-rule="evenodd" d="M163.52 114.55C163.52 114.55 152.44 118.17 148.06 124.6C144.7 129.52 142.97 151.92 143.38 155.54C143.78 159 148.27 165.65 167.48 174.07C167.76 174.19 170.98 173.28 170.12 170.33L155.49 153.47L164.35 131.3C164.35 131.3 170.77 121.6 163.52 114.55Z" fill="#9A34A8"/>
<path fill-rule="evenodd" clip-rule="evenodd" d="M186.09 171.94C186.09 171.94 180.72 171.79 179.67 172.85C178.62 173.91 177.08 176.4 177.84 177.07C178.6 177.74 181.68 176.07 183.6 176.49C184.471 176.709 185.383 176.71 186.255 176.494C187.127 176.278 187.932 175.851 188.6 175.25C190.41 173.9 186.09 171.94 186.09 171.94Z" fill="#FBA870"/>
<path fill-rule="evenodd" clip-rule="evenodd" d="M193.29 150.64L186 171.94C186 171.94 186.22 174.17 189.38 175.61C189.38 175.61 201.97 163.01 201.11 157.83C200.25 152.65 193.29 150.64 193.29 150.64Z" fill="#9A34A8"/>
<path fill-rule="evenodd" clip-rule="evenodd" d="M121.24 172.08C121.24 172.08 116.4 187.31 122.78 192.66C130.21 198.89 171.13 194.96 170.55 198.56C169.55 204.72 173.05 239.46 173.05 239.46C173.05 239.46 181.2 241.01 186.38 239.57C186.38 239.57 192.43 189.64 185.52 183.21C175.44 173.83 141.52 167.48 141.52 167.48L121.24 172.08Z" fill="#727271"/>
<path fill-rule="evenodd" clip-rule="evenodd" d="M106.85 172.08C106.85 172.08 102 187.3 108.38 192.66C115.82 198.89 156.69 194.95 156.16 198.56C154.63 209.02 158 240.3 158 240.3C158 240.3 166.78 241.02 172 239.58C172 239.58 179.82 192.19 171.14 183.22C165.53 177.41 130.94 169.79 130.94 169.79L106.85 172.08Z" fill="#898989"/>
<path fill-rule="evenodd" clip-rule="evenodd" d="M114.89 180.64C110.63 180.89 106.96 180.71 104.72 180.02C103.05 179.51 101.79 165.71 101.16 151.02C100.46 134.76 100.54 117.4 101.67 115.76C103.85 112.61 114.04 109.76 114.33 109.76C117.689 112.091 121.672 113.356 125.76 113.39C129.37 113.34 130.53 111.17 130.9 109.92C132.4 110.07 136.73 111.82 137.96 112.22C144.07 114.22 143.96 123.66 143.96 123.66C143.96 123.66 144.55 158.74 146.51 166.99C148.27 174.5 128.54 179.82 114.89 180.64Z" fill="#00926F"/>
<path fill-rule="evenodd" clip-rule="evenodd" d="M130.88 170.5L133.71 176.73C133.71 176.73 119.42 175.44 116.83 177.36C115.62 178.25 114.64 179.69 114.89 180.64C110.63 180.89 106.96 180.71 104.72 180.02C103.05 179.51 101.79 165.71 101.16 151.02L103.16 148.18L108.11 143.84C108.575 143.43 109.143 143.156 109.753 143.046C110.363 142.937 110.991 142.997 111.57 143.219C112.148 143.442 112.654 143.819 113.033 144.309C113.413 144.799 113.65 145.384 113.72 146C113.824 146.94 113.877 147.884 113.88 148.83C113.92 155.86 125.46 165.75 130.88 170.5Z" fill="#007358"/>
<path fill-rule="evenodd" clip-rule="evenodd" d="M130.41 170.3C131.651 170.805 132.971 171.086 134.31 171.13C138.15 171.25 139.4 171.26 141.04 172.08C142.262 172.837 143.378 173.751 144.36 174.8C144.88 175.35 145.48 177.61 144.94 177.93C143.94 178.5 138.55 176.59 137.09 176.93C135.636 177.16 134.147 176.98 132.79 176.41C131.609 175.926 130.404 175.502 129.18 175.14L130.41 170.3Z" fill="#FBA870"/>
<path fill-rule="evenodd" clip-rule="evenodd" d="M134.62 171.22C136.01 170.938 137.38 170.563 138.72 170.1C138.72 170.1 139.39 170.55 138.98 170.93C138.495 171.274 137.962 171.546 137.4 171.74L134.62 171.22Z" fill="#FBA870"/>
<path fill-rule="evenodd" clip-rule="evenodd" d="M103 114.45C103 114.45 95.23 118.91 95.37 138.62C95.51 158.33 94.22 161.93 97.82 164.52C101.42 167.11 121.87 175.2 129.36 175.68C129.36 175.68 132.04 172.94 130.89 169.97C130.89 169.97 107.79 154.83 107.51 153.97C107.23 153.11 114.51 137.33 115.23 132.14C115.95 126.95 103 114.45 103 114.45Z" fill="#00926F"/>
<path fill-rule="evenodd" clip-rule="evenodd" d="M205.67 123.41H230.46V98.62H223C223.029 97.9932 222.931 97.367 222.711 96.7793C222.491 96.1916 222.155 95.6546 221.721 95.2007C221.288 94.7469 220.767 94.3856 220.19 94.1387C219.613 93.8919 218.992 93.7646 218.365 93.7646C217.738 93.7646 217.117 93.8919 216.54 94.1387C215.963 94.3856 215.442 94.7469 215.009 95.2007C214.575 95.6546 214.239 96.1916 214.019 96.7793C213.799 97.367 213.701 97.9932 213.73 98.62H205.67V106.4C206.813 106.633 207.842 107.25 208.586 108.148C209.331 109.047 209.745 110.173 209.76 111.34C209.76 113.42 208.45 115.03 205.69 115.71L205.67 123.41Z" fill="#FEFEFE"/>
</svg>
