<svg xmlns="http://www.w3.org/2000/svg" width="144" height="123"><path fill="#6d097a" d="M.607 122.573V.385l45.398.259L47.2 5.479c3.168 12.813 10.727 13.007 13.21 13.072 5.94.08 13.413-4.367 15.38-13.052L76.914.526 122.76.403v36.354c4.724 1.15 9.057 3.574 12.583 7.099 5.07 5.07 7.863 11.81 7.862 18.983.001 12.595-8.72 23.195-20.445 26.076v33.657zm12.8-109.316v96.517l96.552-.001V76.889l6.4-.002c7.745-.001 14.047-6.304 14.046-14.048 0-3.754-1.46-7.28-4.114-9.932a13.951 13.951 0 0 0-9.93-4.112h-6.402v-35.56l-23.24.064c-4.952 12.194-16.637 18.363-26.64 18.047-6.729-.173-18.203-2.855-23.823-17.96z"/></svg>