<svg xmlns="http://www.w3.org/2000/svg" width="159" height="339"><path fill="#cae6df" d="M16.685.63h142.314v32H32.714l.298 52.438c11.232 4.288 20.145 10.205 26.896 17.454 10.126 10.872 15.1 24.277 15.492 39.365.39 15.105-5.085 30.764-15.48 43.32-6.93 8.37-16.065 15.425-27.116 20.066l-.144 53.414h83.973v16.01h-.062c0 8.861 3.633 16.925 9.503 22.795 5.87 5.87 13.933 9.502 22.793 9.502v-.062h.009v.062c3.533 0 6.936-.57 10.123-1.626v32.71c-3.296.52-6.677.791-10.123.791v.063h-.01v-.063c-17.777 0-33.832-7.168-45.417-18.753a63.941 63.941 0 0 1-16.758-29.428H.698L.995 180.92l12.403-2.808c9.294-2.103 16.725-7.03 21.897-13.279 5.513-6.657 8.424-14.678 8.23-22.196-.187-7.207-2.433-13.472-6.991-18.365-4.838-5.196-12.47-9.297-23.205-11.95l-12.055-2.98L.657.63z"/></svg>