<svg xmlns="http://www.w3.org/2000/svg" width="181" height="267"><path fill="#00926f" d="m0 238.036 107.008-.002v-71.475l14.45-.002c8.246-.001 15.749-3.38 21.209-8.842 5.458-5.46 8.834-12.961 8.834-21.208h-.056v-.01h.056c0-8.24-3.377-15.738-8.836-21.196-5.457-5.457-12.957-8.835-21.199-8.835v.056h-14.458V29.18l-49.674.134c-4.254 10.21-10.753 18.648-18.472 25.038C27.585 63.688 13.581 68.695 0 68.559V39.764c6.943.132 14.327-2.57 20.462-7.648 5.801-4.803 10.375-11.7 12.329-20.326L35.326.589l100.58-.272v79.138a58.606 58.606 0 0 1 27.191 15.415c10.619 10.618 17.188 25.334 17.19 41.627h.056v.01h-.056c0 16.297-6.568 31.016-17.189 41.639a58.618 58.618 0 0 1-27.192 15.418v73.253L0 266.82z"/></svg>