<svg width="77" height="62" viewBox="0 0 77 62" fill="none" xmlns="http://www.w3.org/2000/svg">
<path fill-rule="evenodd" clip-rule="evenodd" d="M2.745 15.397H40.245V54.908H29.336C28.9663 56.4629 28.1718 57.8845 27.041 59.014V59.014C26.2397 59.8171 25.2878 60.4543 24.2398 60.889C23.1919 61.3238 22.0685 61.5475 20.934 61.5475C19.7995 61.5475 18.6761 61.3238 17.6281 60.889C16.5802 60.4543 15.6283 59.8171 14.827 59.014C13.694 57.8842 12.8977 56.4615 12.527 54.905H0.746998L0.787994 40.163L2.33699 39.813C3.55978 39.5455 4.65884 38.8788 5.46099 37.918C6.22223 37.0295 6.64044 35.898 6.64 34.728C6.64573 33.7461 6.28322 32.7977 5.624 32.07C4.71354 31.1972 3.5698 30.6067 2.331 30.37L0.824997 29.998L0.740997 15.398L2.745 15.397ZM36.266 19.397H4.748L4.791 26.956C6.21429 27.4483 7.50074 28.2707 8.54499 29.356C9.87482 30.7951 10.6167 32.6805 10.624 34.64C10.6489 36.7699 9.90914 38.8381 8.539 40.469C7.52798 41.6861 6.22998 42.6325 4.762 43.223L4.73999 50.911H16.3V52.911C16.2993 53.5206 16.419 54.1243 16.6522 54.6875C16.8854 55.2507 17.2276 55.7623 17.659 56.193V56.2C18.5321 57.0659 19.7123 57.5511 20.9419 57.5498C22.1716 57.5485 23.3508 57.0607 24.222 56.193H24.229C24.6607 55.7625 25.0031 55.2509 25.2365 54.6877C25.4699 54.1244 25.5897 53.5207 25.589 52.911V50.911H36.264L36.266 19.397Z" fill="#00926F"/>
<path fill-rule="evenodd" clip-rule="evenodd" d="M76.733 0.453979V7.59097C75.3059 7.59097 73.9372 8.15789 72.9281 9.16702C71.9189 10.1762 71.352 11.5448 71.352 12.972C71.352 14.3991 71.9189 15.7678 72.9281 16.7769C73.9372 17.786 75.3059 18.353 76.733 18.353V25.489H69.6C69.6 24.0618 69.0331 22.6932 68.024 21.684C67.0148 20.6749 65.6461 20.108 64.219 20.108C62.7919 20.108 61.4232 20.6749 60.4141 21.684C59.4049 22.6932 58.838 24.0618 58.838 25.489H51.7V0.453979H76.733Z" fill="#6D097A"/>
</svg>
