<svg width="255" height="307" viewBox="0 0 255 307" fill="none" xmlns="http://www.w3.org/2000/svg">
<path fill-rule="evenodd" clip-rule="evenodd" d="M254.86 65.97H171.3V55.97C171.294 51.27 170.362 46.6173 168.557 42.2778C166.752 37.9384 164.109 33.9973 160.78 30.68C157.459 27.3518 153.514 24.712 149.171 22.9119C144.827 21.1118 140.172 20.1868 135.47 20.19C125.985 20.2138 116.896 23.9921 110.189 30.6989C103.482 37.4057 99.7038 46.4952 99.68 55.98V65.98H20.09L20.26 125.35C30.743 129.089 40.0273 135.579 47.14 144.14C56.21 155.14 60.98 168.71 60.64 181.81C60.3362 195.585 55.496 208.875 46.87 219.62C39.9205 228.123 30.7924 234.58 20.46 238.3L20.07 306.89L0.160004 306.82L0.630005 223.09L8.16 221.23C18.49 218.68 26.16 213.5 31.41 207.04C37.2525 199.724 40.5273 190.69 40.73 181.33C40.94 172.97 37.73 164.13 31.73 156.86C25.6642 149.596 17.3549 144.554 8.11 142.53L0.360001 140.78L0.100006 45.97H80.64C82.9737 33.1348 89.7449 21.5283 99.7695 13.1799C109.794 4.83149 122.434 0.272499 135.48 0.299989C142.794 0.284586 150.04 1.71491 156.8 4.50879C163.56 7.30267 169.701 11.405 174.87 16.58C182.887 24.5879 188.261 34.8579 190.27 46.01H254.81L254.86 65.97Z" fill="#00926F"/>
</svg>
