<svg width="50" height="25" viewBox="0 0 50 25" fill="none" xlink:href="data:image/png;base64" xmlns="http://www.w3.org/2000/svg" xmlns:xlink="http://www.w3.org/1999/xlink" xmlns: ev = "http://www.w3.org/2001/xml-events">
<path fill-rule="evenodd" clip-rule="evenodd" d="M2.048 4.27808C1.51757 4.27808 1.00886 4.06736 0.633789 3.69229C0.258716 3.31722 0.0480042 2.80851 0.0480042 2.27808C0.0480042 1.74764 0.258716 1.23894 0.633789 0.863863C1.00886 0.48879 1.51757 0.278076 2.048 0.278076H24.965H47.882C48.4124 0.278076 48.9211 0.48879 49.2962 0.863863C49.6713 1.23894 49.882 1.74764 49.882 2.27808C49.882 2.80851 49.6713 3.31722 49.2962 3.69229C48.9211 4.06736 48.4124 4.27808 47.882 4.27808H2.048Z" fill="#333333"/>
<path fill-rule="evenodd" clip-rule="evenodd" d="M2.048 14.212C1.51757 14.212 1.00886 14.0013 0.633789 13.6262C0.258716 13.2512 0.0480042 12.7425 0.0480042 12.212C0.0480042 11.6816 0.258716 11.1729 0.633789 10.7978C1.00886 10.4227 1.51757 10.212 2.048 10.212H47.882C48.4124 10.212 48.9211 10.4227 49.2962 10.7978C49.6713 11.1729 49.882 11.6816 49.882 12.212C49.882 12.7425 49.6713 13.2512 49.2962 13.6262C48.9211 14.0013 48.4124 14.212 47.882 14.212H2.048Z" fill="#333333"/>
<path fill-rule="evenodd" clip-rule="evenodd" d="M2.048 24.146C1.51757 24.146 1.00886 23.9353 0.633789 23.5602C0.258716 23.1851 0.0480042 22.6764 0.0480042 22.146C0.0480042 21.6156 0.258716 21.1069 0.633789 20.7318C1.00886 20.3567 1.51757 20.146 2.048 20.146H47.882C48.4124 20.146 48.9211 20.3567 49.2962 20.7318C49.6713 21.1069 49.882 21.6156 49.882 22.146C49.882 22.6764 49.6713 23.1851 49.2962 23.5602C48.9211 23.9353 48.4124 24.146 47.882 24.146H2.048Z" fill="#333333"/>
</svg>
